<svg width="116" height="94" version="1.1" xmlns="http://www.w3.org/2000/svg" desc="Created with imagetracer.js version 1.2.6" ><path fill="rgb(226,236,206)" stroke="rgb(226,236,206)" stroke-width="1" opacity="1" d="M 43.5 15 L 44 20.5 L 43 20.5 L 43.5 15 Z " /><path fill="rgb(226,236,206)" stroke="rgb(226,236,206)" stroke-width="1" opacity="1" d="M 43.5 24 L 44 27 L 47 27.5 L 44.5 28 L 42 27.5 L 43.5 24 Z " /><path fill="rgb(226,236,206)" stroke="rgb(226,236,206)" stroke-width="1" opacity="1" d="M 31.5 28 L 30.5 30 L 31.5 28 Z " /><path fill="rgb(226,236,206)" stroke="rgb(226,236,206)" stroke-width="1" opacity="1" d="M 43.5 31 L 44 40.5 L 43 40.5 L 43.5 31 Z " /><path fill="rgb(226,236,206)" stroke="rgb(226,236,206)" stroke-width="1" opacity="1" d="M 55.5 32 L 54.5 34 L 55.5 32 Z " /><path fill="rgb(226,236,206)" stroke="rgb(226,236,206)" stroke-width="1" opacity="1" d="M 67.5 32 L 63.5 37 L 67.5 32 Z " /><path fill="rgb(226,236,206)" stroke="rgb(226,236,206)" stroke-width="1" opacity="1" d="M 45.5 42 L 48 42.5 L 45.5 43 L 45.5 42 Z " /><path fill="rgb(226,236,206)" stroke="rgb(226,236,206)" stroke-width="1" opacity="1" d="M 43.5 45 L 44 47.5 L 43 47.5 L 43.5 45 Z " /><path fill="rgb(226,236,206)" stroke="rgb(226,236,206)" stroke-width="1" opacity="1" d="M 45.5 48 L 48 48.5 L 45.5 49 L 45.5 48 Z " /><path fill="rgb(226,236,206)" stroke="rgb(226,236,206)" stroke-width="1" opacity="1" d="M 43.5 51 L 44 55.5 L 43 55.5 L 43.5 51 Z " /><path fill="rgb(226,236,206)" stroke="rgb(226,236,206)" stroke-width="1" opacity="1" d="M 66.5 69 L 67 72.5 L 66 72.5 L 66.5 69 Z " /><path fill="rgb(255,255,255)" stroke="rgb(255,255,255)" stroke-width="1" opacity="1" d="M 0 0 L 116 0 L 116 94 L 0 94 L 0 0 Z M 43 15 L 43 21 Q 28 23 20 33 L 24 40 Q 29 47 39 51 L 43 51 L 44 56 L 82 56 L 82 15 L 43 15 Z M 15 63 L 15 79 L 20 79 L 20 67 Q 25 66 26 69 L 26 79 L 31 79 L 31 68 L 30 66 L 27 63 L 15 63 Z M 31 63 L 36 78 L 37 79 L 43 79 L 48 64 L 44 63 L 40 74 L 37 65 Q 36 62 31 63 Z M 49 63 L 49 79 L 54 79 L 54 64 L 49 63 Z M 56 63 L 56 79 L 67 79 L 71 76 Q 72 69 70 66 L 67 63 L 56 63 Z M 73 63 L 73 79 L 78 79 L 78 64 L 73 63 Z M 86 63 L 79 79 L 84 79 L 84 76 L 91 76 L 92 78 L 92 79 L 97 79 L 92 65 Q 91 62 86 63 Z M 98 76 Q 97 81 101 79 Q 103 75 98 76 Z " /><path fill="rgb(255,255,255)" stroke="rgb(255,255,255)" stroke-width="1" opacity="1" d="M 44 21 L 53.5 22 Q 61.9 25.1 67 31.5 L 59.5 40 Q 53.5 44.8 44 45 L 44.5 42 L 47.5 43 Q 57.3 40.3 62 32.5 Q 56.8 24.7 45.5 23 L 44 23.5 L 44 21 Z " /><path fill="rgb(255,255,255)" stroke="rgb(255,255,255)" stroke-width="1" opacity="1" d="M 41.5 24 Q 44.1 23.2 43 26.5 L 36.5 29 L 31 33.5 L 39.5 44 L 43 45.5 L 42.5 48 Q 34.9 46.2 31 40.5 L 27 33.5 L 29.5 30 L 41.5 24 Z " /><path fill="rgb(255,255,255)" stroke="rgb(255,255,255)" stroke-width="1" opacity="1" d="M 44 28 Q 51.8 26.8 55 31.5 L 51.5 36 Q 49.3 36.8 50 34.5 Q 48.7 30.3 44 31 L 44 28 Z " /><path fill="rgb(255,255,255)" stroke="rgb(255,255,255)" stroke-width="1" opacity="1" d="M 40.5 31 L 43 31.5 L 43 40.5 L 41.5 40 L 39 38.5 L 37 33 L 40.5 31 Z " /><path fill="rgb(255,255,255)" stroke="rgb(255,255,255)" stroke-width="1" opacity="1" d="M 70.5 37 L 77 41.5 L 69.5 46 L 57.5 50 L 44 51 L 44.5 48 L 47.5 49 L 60.5 45 L 70.5 37 Z " /><path fill="rgb(255,255,255)" stroke="rgb(255,255,255)" stroke-width="1" opacity="1" d="M 61 67 Q 64.8 66 66 68.5 Q 67.3 73.8 64.5 75 L 61 75 L 61 67 Z " /><path fill="rgb(255,255,255)" stroke="rgb(255,255,255)" stroke-width="1" opacity="1" d="M 87 68 Q 90 66.8 89 70.5 L 90 73 L 86 73 L 86 71.5 L 87 68 Z " /><path fill="rgb(91,100,81)" stroke="rgb(91,100,81)" stroke-width="1" opacity="1" d="M 15.5 63 L 16 78 L 19 78.5 L 16.5 79 L 15 77.5 L 15.5 63 Z " /><path fill="rgb(91,100,81)" stroke="rgb(91,100,81)" stroke-width="1" opacity="1" d="M 53.5 63 L 54 77.5 L 50.5 79 L 50.5 78 L 53 77.5 L 53.5 63 Z " /><path fill="rgb(91,100,81)" stroke="rgb(91,100,81)" stroke-width="1" opacity="1" d="M 49.5 65 L 50 76.5 L 49 76.5 L 49.5 65 Z " /><path fill="rgb(91,100,81)" stroke="rgb(91,100,81)" stroke-width="1" opacity="1" d="M 61.5 66 L 63 66.5 L 61 67 L 61 74.5 L 62.5 75 L 62.5 76 L 60 74.5 Q 58.3 67.7 61.5 66 Z " /><path fill="rgb(91,100,81)" stroke="rgb(91,100,81)" stroke-width="1" opacity="1" d="M 26.5 69 L 27 78 L 31 78.5 L 27.5 79 L 26 77.5 L 26.5 69 Z " /><path fill="rgb(91,100,81)" stroke="rgb(91,100,81)" stroke-width="1" opacity="1" d="M 69.5 76 L 68.5 78 L 69.5 76 Z " /><path fill="rgb(91,100,81)" stroke="rgb(91,100,81)" stroke-width="1" opacity="1" d="M 96.5 77 L 97 79 L 93 78.5 L 96.5 77 Z " /><path fill="rgb(91,100,81)" stroke="rgb(91,100,81)" stroke-width="1" opacity="1" d="M 98 77 Q 101 76 100 79 Q 97 80 98 77 Z " /><path fill="rgb(91,100,81)" stroke="rgb(91,100,81)" stroke-width="1" opacity="1" d="M 36.5 78 L 42 78.5 L 36.5 79 L 36.5 78 Z " /><path fill="rgb(91,100,81)" stroke="rgb(91,100,81)" stroke-width="1" opacity="1" d="M 57.5 78 L 66 78.5 L 57.5 79 L 57.5 78 Z " /><path fill="rgb(91,100,81)" stroke="rgb(91,100,81)" stroke-width="1" opacity="1" d="M 73.5 78 L 77 78.5 L 73.5 79 L 73.5 78 Z " /><path fill="rgb(91,100,81)" stroke="rgb(91,100,81)" stroke-width="1" opacity="1" d="M 79.5 78 L 83 78.5 L 79.5 79 L 79.5 78 Z " /><path fill="rgb(155,189,95)" stroke="rgb(155,189,95)" stroke-width="1" opacity="1" d="M 44.5 15 L 82 15.5 L 44.5 16 L 44.5 15 Z " /><path fill="rgb(155,189,95)" stroke="rgb(155,189,95)" stroke-width="1" opacity="1" d="M 43.5 21 L 44 23.5 L 43 23.5 L 43.5 21 Z " /><path fill="rgb(155,189,95)" stroke="rgb(155,189,95)" stroke-width="1" opacity="1" d="M 43.5 27 L 44 31 L 42 30.5 L 43.5 27 Z " /><path fill="rgb(155,189,95)" stroke="rgb(155,189,95)" stroke-width="1" opacity="1" d="M 57.5 28 L 60.5 32 L 57.5 28 Z " /><path fill="rgb(155,189,95)" stroke="rgb(155,189,95)" stroke-width="1" opacity="1" d="M 60.5 33 L 55.5 39 L 60.5 33 Z " /><path fill="rgb(155,189,95)" stroke="rgb(155,189,95)" stroke-width="1" opacity="1" d="M 53.5 34 L 52.5 36 L 53.5 34 Z " /><path fill="rgb(155,189,95)" stroke="rgb(155,189,95)" stroke-width="1" opacity="1" d="M 62.5 37 L 61.5 39 L 62.5 37 Z " /><path fill="rgb(155,189,95)" stroke="rgb(155,189,95)" stroke-width="1" opacity="1" d="M 68.5 38 L 67.5 40 L 68.5 38 Z " /><path fill="rgb(155,189,95)" stroke="rgb(155,189,95)" stroke-width="1" opacity="1" d="M 42.5 41 L 44 41 L 44 45 L 42 44.5 L 43 42.5 L 42.5 41 Z " /><path fill="rgb(155,189,95)" stroke="rgb(155,189,95)" stroke-width="1" opacity="1" d="M 43.5 48 L 44 51 L 49 51.5 L 44.5 52 Q 42 51 43.5 48 Z " /><path fill="rgb(155,189,95)" stroke="rgb(155,189,95)" stroke-width="1" opacity="1" d="M 77.5 63 L 78 77.5 L 77 77.5 L 77.5 63 Z " /><path fill="rgb(155,189,95)" stroke="rgb(155,189,95)" stroke-width="1" opacity="1" d="M 28.5 64 L 29.5 66 L 28.5 64 Z " /><path fill="rgb(155,189,95)" stroke="rgb(155,189,95)" stroke-width="1" opacity="1" d="M 98.5 76 L 101 77.5 L 99.5 77 L 98.5 76 Z " /><path fill="rgb(114,182,0)" stroke="rgb(114,182,0)" stroke-width="1" opacity="1" d="M 44 16 L 82 16 L 82 56 L 44.5 56 L 44 52 L 59.5 50 Q 70.1 47.6 77 41.5 Q 77.8 39.3 75.5 40 L 70.5 37 L 57.5 46 L 50.5 48 L 44 48 L 44 45 L 50.5 45 Q 61.5 41 68 32.5 Q 61.6 20.4 44 21 L 44 16 Z " /><path fill="rgb(114,182,0)" stroke="rgb(114,182,0)" stroke-width="1" opacity="1" d="M 41.5 21 Q 44.5 20.2 43 24 Q 31.9 24.7 27 32.5 Q 28.9 42.1 36.5 46 L 43 48 Q 44.7 52.1 40.5 51 Q 31.3 48.2 26 41.5 L 21 32.5 Q 28.5 24 41.5 21 Z " /><path fill="rgb(114,182,0)" stroke="rgb(114,182,0)" stroke-width="1" opacity="1" d="M 44 24 Q 56 24.4 61 32.5 Q 56.4 41.8 44 42 L 44 31.5 L 45.5 31 L 48 32 L 50.5 37 L 56 32.5 L 48.5 27 L 44 27 L 44 24 Z " /><path fill="rgb(114,182,0)" stroke="rgb(114,182,0)" stroke-width="1" opacity="1" d="M 40.5 28 Q 43.8 26.9 43 29.5 L 37 33.5 L 38 37.5 L 43 44 L 40.5 44 L 34 38.5 L 32 33.5 L 40.5 28 Z " /><path fill="rgb(47,47,47)" stroke="rgb(47,47,47)" stroke-width="1" opacity="1" d="M 16.5 63 L 25 63.5 L 16.5 64 L 16.5 63 Z " /><path fill="rgb(47,47,47)" stroke="rgb(47,47,47)" stroke-width="1" opacity="1" d="M 32.5 63 L 36 63.5 L 32.5 64 L 32.5 63 Z " /><path fill="rgb(47,47,47)" stroke="rgb(47,47,47)" stroke-width="1" opacity="1" d="M 43.5 63 L 47 63.5 L 43.5 64 L 43.5 63 Z " /><path fill="rgb(47,47,47)" stroke="rgb(47,47,47)" stroke-width="1" opacity="1" d="M 50.5 63 L 53 63.5 L 49.5 65 L 50.5 63 Z " /><path fill="rgb(47,47,47)" stroke="rgb(47,47,47)" stroke-width="1" opacity="1" d="M 57.5 63 L 64 63.5 L 57 64 L 56.5 78 L 56 64.5 L 57.5 63 Z " /><path fill="rgb(47,47,47)" stroke="rgb(47,47,47)" stroke-width="1" opacity="1" d="M 73.5 63 L 77 63.5 L 73.5 64 L 73.5 63 Z " /><path fill="rgb(47,47,47)" stroke="rgb(47,47,47)" stroke-width="1" opacity="1" d="M 85.5 63 L 91 63.5 L 85.5 64 L 85.5 63 Z " /><path fill="rgb(47,47,47)" stroke="rgb(47,47,47)" stroke-width="1" opacity="1" d="M 19.5 67 L 20 77.5 L 19 77.5 L 19.5 67 Z " /><path fill="rgb(47,47,47)" stroke="rgb(47,47,47)" stroke-width="1" opacity="1" d="M 30.5 69 L 31 77.5 L 30 77.5 L 30.5 69 Z " /><path fill="rgb(47,47,47)" stroke="rgb(47,47,47)" stroke-width="1" opacity="1" d="M 85.5 73 L 91 73.5 L 85.5 74 L 85.5 73 Z " /><path fill="rgb(0,0,0)" stroke="rgb(0,0,0)" stroke-width="1" opacity="1" d="M 16 64 L 27.5 64 L 30 66.5 L 30 77.5 L 27 78 Q 28.1 70.4 26 67 L 19 67 L 19 77.5 L 16 78 L 16 64 Z " /><path fill="rgb(0,0,0)" stroke="rgb(0,0,0)" stroke-width="1" opacity="1" d="M 32 64 L 36 64 L 36 65.5 L 39.5 75 L 43 64 L 47 64.5 L 43 78 L 36 78 L 36 75.5 L 32 64 Z " /><path fill="rgb(0,0,0)" stroke="rgb(0,0,0)" stroke-width="1" opacity="1" d="M 50 64 L 53 64.5 L 53 78 L 50 77.5 L 50 64 Z " /><path fill="rgb(0,0,0)" stroke="rgb(0,0,0)" stroke-width="1" opacity="1" d="M 57 64 L 67.5 64 L 70 66.5 L 71 73.5 L 67.5 78 L 57 78 L 57 64 Z M 60 66 L 60 76 L 66 75 Q 68 74 67 69 Q 65 65 60 66 Z " /><path fill="rgb(0,0,0)" stroke="rgb(0,0,0)" stroke-width="1" opacity="1" d="M 73 64 L 77 64.5 L 77 78 L 73 77.5 L 73 64 Z " /><path fill="rgb(0,0,0)" stroke="rgb(0,0,0)" stroke-width="1" opacity="1" d="M 85 64 Q 90.4 62.5 92 65.5 L 96 78 Q 90.7 79.3 91.5 76 L 84 76 Q 85.2 79.7 80 78 L 85 64 Z M 87 66 L 85 73 L 86 74 L 91 74 L 89 69 Q 90 65 87 66 Z " /></svg>